<?xml version="1.0" standalone="no"?>
<svg viewBox="0 0 200 200" xmlns="http://www.w3.org/2000/svg">
  <path fill="#08BDBA" d="M32.3,-58.8C43.2,-49.7,54.2,-43.7,58.3,-34.4C62.4,-25.1,59.5,-12.6,60,0.3C60.5,13.1,64.4,26.3,62.8,39.9C61.3,53.6,54.3,67.8,42.9,75C31.6,82.2,15.8,82.3,1.5,79.8C-12.9,77.2,-25.7,72,-34.9,63.6C-44.1,55.1,-49.6,43.5,-56.6,32.4C-63.5,21.2,-71.9,10.6,-75.9,-2.3C-79.9,-15.2,-79.4,-30.4,-71.6,-40.1C-63.8,-49.8,-48.7,-54,-35.5,-61.8C-22.4,-69.6,-11.2,-81,-0.2,-80.6C10.7,-80.2,21.4,-67.9,32.3,-58.8Z" transform="translate(100 100)" />
</svg>
