<svg width="198" height="40" viewBox="0 0 198 40" fill="none" xmlns="http://www.w3.org/2000/svg">
<g id="Group 158">
<g id="Group 157">
<g id="Group 155">
<path id="Vector" d="M20.8178 32.2419C20.7869 31.9932 20.768 31.7433 20.761 31.4922C20.396 31.8792 20.0148 32.2744 19.6103 32.6777C18.9556 33.3115 18.3565 33.7032 17.7064 33.9304C17.1436 34.4889 16.4674 34.92 15.7236 35.1946C18.8304 35.416 20.6973 33.5074 20.6973 33.5074C20.71 33.4877 20.8282 33.3845 21.0287 33.2072C20.9307 32.8922 20.8601 32.5692 20.8178 32.2419Z" fill="url(#paint0_linear_2602_8898)"/>
<path id="Vector_2" d="M24.1971 34.9486C24.041 35.0636 23.8613 35.1428 23.671 35.1803C23.421 35.2343 23.1618 35.2288 22.9143 35.1641C22.6078 35.0811 22.3256 34.9257 22.0916 34.711C21.8173 34.4793 21.5813 34.12 21.3835 33.6333C21.1915 33.1819 21.0643 32.7055 21.0057 32.2184C20.9399 31.7065 20.9283 31.1892 20.971 30.6748C21.0128 30.1707 21.1151 29.6735 21.2758 29.1939C21.4168 28.7566 21.6282 28.3452 21.9015 27.9759C22.1438 27.6494 22.462 27.3869 22.8286 27.2111C23.2052 27.0381 23.628 26.9929 24.0326 27.0825C24.2297 27.1177 24.4174 27.193 24.5842 27.3038C24.7238 27.401 24.8483 27.5181 24.9539 27.6515C25.0465 27.7677 25.1244 27.895 25.1856 28.0304C25.2326 28.1342 25.2714 28.2415 25.3015 28.3514C25.444 28.8178 25.444 29.3161 25.3015 29.7825C25.1717 30.2309 24.9472 30.6462 24.6433 31.0005C24.3626 31.3291 24.0074 31.5858 23.6073 31.7491C23.2478 31.9069 22.8415 31.9214 22.4717 31.7896C22.4814 32.0785 22.5062 32.3667 22.5458 32.653C22.5781 32.8971 22.636 33.1371 22.7185 33.3691C22.861 33.7527 23.0314 34.003 23.2295 34.1177C23.3228 34.1741 23.4282 34.2072 23.5369 34.2142C23.6456 34.2213 23.7544 34.2021 23.8541 34.1583C24.1152 34.0388 24.3437 33.8584 24.5205 33.6322C24.7674 33.3381 24.9903 33.0246 25.1868 32.6947C25.3932 32.3074 25.5657 31.903 25.7025 31.486C25.8608 31.0225 26.0227 30.559 26.188 30.0954C26.2128 30.1407 26.2403 30.1844 26.2703 30.2264C26.322 30.309 26.3632 30.3978 26.3931 30.4906C26.4344 30.6099 26.4593 30.7343 26.4673 30.8603C26.4764 31.0137 26.4543 31.1675 26.4024 31.3122C26.1336 32.0689 25.8006 32.8013 25.407 33.5012C25.09 34.0497 24.6807 34.5394 24.1971 34.9486ZM23.5888 27.6619C23.3962 27.7664 23.241 27.9285 23.1449 28.1254C22.9991 28.3962 22.8859 28.6833 22.8077 28.9806C22.709 29.3377 22.6316 29.7002 22.576 30.0665C22.5157 30.4563 22.4797 30.8495 22.4682 31.2438C22.7321 31.1186 22.9684 30.9421 23.1635 30.7247C23.3856 30.4871 23.58 30.2251 23.7429 29.9436C23.9044 29.6658 24.0261 29.3666 24.1044 29.0548C24.1803 28.7759 24.1914 28.4834 24.1369 28.1996C24.1149 28.1335 24.0929 28.0629 24.072 27.9852C24.0495 27.9096 24.0159 27.8377 23.9723 27.772C23.9345 27.7118 23.8807 27.6633 23.8171 27.6318C23.7793 27.6188 23.739 27.6148 23.6994 27.62C23.6598 27.6252 23.6219 27.6396 23.5888 27.6619Z" fill="url(#paint1_linear_2602_8898)"/>
<g id="Group 154">
<path id="Vector_3" d="M30.2347 34.1099C30.4209 33.7924 30.6187 33.4139 30.828 32.9743C31.0374 32.5347 31.2622 31.9939 31.5025 31.3519C31.5896 31.1539 31.6635 30.9502 31.7238 30.7424C31.7841 30.535 31.8524 30.3206 31.9301 30.1016C31.9549 30.1468 31.9824 30.1905 32.0123 30.2325C32.0643 30.3162 32.1081 30.4047 32.1433 30.4967C32.1895 30.615 32.2173 30.7397 32.2256 30.8664C32.2347 31.0199 32.2126 31.1736 32.1607 31.3183L32.0286 31.666C31.7675 32.4122 31.4514 33.1381 31.083 33.8376C30.8192 34.3307 30.5194 34.8036 30.186 35.2525L30.0875 37.8842C30.0219 38.3887 29.8793 38.7479 29.6599 38.9619C29.4708 39.1621 29.2108 39.2802 28.9357 39.291C28.6573 39.2917 28.3861 39.2023 28.1627 39.0361C27.9141 38.8651 27.7106 38.6365 27.5694 38.3698C27.4264 38.0967 27.3664 37.7877 27.3968 37.4809C27.4246 37.1573 27.5918 36.8482 27.8985 36.5539C28.0411 36.4229 28.1755 36.3013 28.3018 36.1923C28.4281 36.0834 28.5509 35.9722 28.6726 35.8632L28.7213 33.9048C28.5362 34.218 28.3183 34.5105 28.0712 34.7774C27.8394 35.03 27.5972 35.1552 27.3562 35.1552C27.1096 35.1615 26.8695 35.0765 26.6818 34.9165C26.4889 34.7475 26.3466 34.5286 26.2704 34.2838C26.1086 33.8261 26.0024 33.3507 25.954 32.8677C25.8938 32.3379 25.8829 31.8037 25.9216 31.272C25.9585 30.7362 26.0438 30.2048 26.1765 29.6844C26.2943 29.2026 26.4796 28.7399 26.727 28.31C26.9408 27.935 27.2291 27.6077 27.5741 27.3482C27.9019 27.1063 28.3026 26.9837 28.7097 27.0006C29.0177 27.0115 29.3191 27.0931 29.5904 27.2393C29.8643 27.3836 30.0719 27.6281 30.1698 27.9218C30.2262 28.0837 30.2465 28.256 30.2293 28.4265C30.2121 28.5971 30.1578 28.7618 30.0702 28.9091C30.3124 28.9636 30.4329 29.0343 30.4329 29.1224L30.2347 34.1099ZM28.3273 29.2429C28.592 29.1758 28.8266 29.022 28.9936 28.806C29.1422 28.5984 29.2146 28.3458 29.1987 28.091C29.181 27.9541 29.1238 27.8252 29.0342 27.7202C28.9357 27.595 28.7931 27.5753 28.6066 27.6634C28.442 27.7407 28.2995 27.916 28.179 28.1895C28.0443 28.5082 27.9396 28.8387 27.8661 29.1768C27.7737 29.5862 27.7079 30.0012 27.6691 30.4191C27.625 30.8633 27.5949 31.2963 27.5787 31.7181C27.561 32.1044 27.5664 32.4913 27.5949 32.8769C27.6105 33.1544 27.6516 33.4298 27.7177 33.6997C27.7514 33.8422 27.8116 33.9048 27.8985 33.8886C28.0113 33.8559 28.11 33.7866 28.179 33.6916C28.2935 33.5532 28.3951 33.4046 28.4826 33.2478C28.5849 33.0698 28.6758 32.8856 28.7549 32.6962C28.7657 32.1917 28.7819 31.6818 28.8036 31.1665C28.8252 30.6512 28.858 30.1027 28.9021 29.521C28.792 29.517 28.684 29.4899 28.585 29.4416C28.486 29.3933 28.3982 29.3248 28.3273 29.2406V29.2429ZM28.6552 36.7752C28.6243 36.7953 28.5969 36.8204 28.5741 36.8494C28.5509 36.876 28.5301 36.9015 28.5081 36.9236C28.2663 37.1862 28.1318 37.4358 28.1048 37.6722C28.0691 37.8527 28.0922 38.04 28.1709 38.2064C28.1912 38.2574 28.2284 38.2999 28.2763 38.3268C28.3241 38.3538 28.3797 38.3636 28.4339 38.3547C28.5382 38.3327 28.595 38.2006 28.6066 37.9595L28.6552 36.7752Z" fill="url(#paint2_linear_2602_8898)"/>
<g id="Group 153">
<path id="Vector_4" d="M35.9303 27.9242C35.9869 28.086 36.0074 28.2582 35.9904 28.4288C35.9734 28.5993 35.9193 28.7641 35.8318 28.9115C36.0705 28.966 36.1911 29.0367 36.1911 29.1248C36.2134 29.775 36.2022 30.426 36.1574 31.0751C36.1146 31.6939 36.0972 32.3219 36.1088 32.9581C36.1196 33.4742 36.169 33.7237 36.2571 33.7067C36.3452 33.6897 36.463 33.509 36.6105 33.1644C36.7589 32.8168 36.9281 32.3637 37.1204 31.7982C37.3128 31.2326 37.5075 30.6602 37.6998 30.0796C37.7299 30.1187 37.7574 30.1598 37.7821 30.2025C37.8334 30.2891 37.8776 30.3798 37.9142 30.4736C37.9599 30.5953 37.9876 30.7229 37.9965 30.8526C38.0048 31.0113 37.9766 31.1699 37.9142 31.3161C37.7497 31.7665 37.6067 32.1589 37.4855 32.4934C37.3696 32.8272 37.2444 33.132 37.1239 33.4054C37.0096 33.6679 36.8804 33.9237 36.7369 34.1714C36.5891 34.4229 36.4213 34.662 36.2351 34.8864C36.1463 35.0119 36.0163 35.1021 35.8677 35.1414C35.7266 35.1796 35.5778 35.1796 35.4367 35.1414C35.2918 35.1013 35.1582 35.0283 35.0461 34.9281C34.9269 34.8244 34.8373 34.6908 34.7866 34.5411C34.753 34.4252 34.724 34.2838 34.6962 34.1297C34.6684 33.9756 34.6452 33.8122 34.6232 33.636C34.5251 33.823 34.4181 34.0069 34.3022 34.1876C34.1936 34.3601 34.0698 34.5226 33.9325 34.6732C33.8132 34.8056 33.6777 34.9224 33.5292 35.0208C33.4104 35.1028 33.2703 35.1483 33.126 35.1518C32.8794 35.1581 32.6392 35.0731 32.4515 34.9131C32.2587 34.7441 32.1163 34.5251 32.0402 34.2803C31.8781 33.8257 31.7703 33.3535 31.7192 32.8735C31.6589 32.3438 31.648 31.8096 31.6867 31.2778C31.7236 30.742 31.8089 30.2107 31.9417 29.6903C32.0598 29.2084 32.2455 28.7457 32.4933 28.3159C32.7068 27.9407 32.9951 27.6133 33.3404 27.3541C33.6678 27.1122 34.0681 26.9895 34.4748 27.0064C34.7803 27.0172 35.079 27.099 35.3474 27.2451C35.6224 27.3874 35.8313 27.6309 35.9303 27.9242ZM34.1017 29.2406C34.3664 29.1736 34.601 29.0198 34.768 28.8038C34.9176 28.5966 34.9902 28.3437 34.9731 28.0888C34.9554 27.9518 34.8982 27.823 34.8086 27.7179C34.7101 27.5928 34.5675 27.5731 34.381 27.6612C34.2164 27.7384 34.0739 27.9138 33.9534 28.1873C33.8187 28.506 33.714 28.8365 33.6405 29.1746C33.5486 29.5841 33.4828 29.999 33.4435 30.4168C33.3995 30.8611 33.3693 31.2941 33.3531 31.7159C33.336 32.1021 33.3414 32.4891 33.3693 32.8747C33.3852 33.1522 33.4267 33.4276 33.4933 33.6975C33.5366 33.852 33.605 33.9122 33.6984 33.8782C33.8192 33.8232 33.9218 33.7347 33.9939 33.6233C34.1141 33.462 34.2214 33.2915 34.3149 33.1134C34.4179 32.9274 34.5062 32.7337 34.5791 32.534C34.5675 32.0187 34.573 31.4976 34.5954 30.9708C34.6178 30.4439 34.6394 29.956 34.6603 29.5072C34.5541 29.5022 34.45 29.4761 34.3541 29.4303C34.2581 29.3845 34.1723 29.32 34.1017 29.2406Z" fill="url(#paint3_linear_2602_8898)"/>
<path id="Vector_5" d="M29.0923 16.1196C25.6378 8.9592 13.126 14.7058 11.7007 15.3872C12.491 15.2829 14.1713 15.1102 15.8133 15.2713C17.9641 15.4753 18.2098 15.2713 16.7497 17.1092C18.6698 16.5298 21.6689 15.9504 24.5428 16.7071C25.072 16.8428 25.5562 17.1156 25.9464 17.4981C26.3366 17.8806 26.6191 18.3592 26.7654 18.8857C27.0922 20.0885 27.1269 21.9287 25.9241 24.448C25.471 25.3278 24.9648 26.1791 24.4083 26.9974C24.5083 27.0379 24.6035 27.0891 24.6922 27.1504C24.8467 27.2574 24.9845 27.3867 25.1013 27.534C25.2034 27.6626 25.2891 27.8035 25.3562 27.9535C25.4077 28.0656 25.4496 28.1819 25.4814 28.3011C25.508 28.3892 25.5277 28.4772 25.5451 28.5653C28.4063 25.0784 31.1075 20.2971 29.0923 16.1196Z" fill="url(#paint4_linear_2602_8898)"/>
<path id="Vector_6" d="M15.6557 29.244C15.6557 29.244 15.4343 23.2483 12.0135 22.0929C8.59265 20.9376 4.28415 27.0237 10.7736 33.1979C11.111 33.5232 11.4925 33.7994 11.9069 34.0184C12.4515 34.2084 13.1538 34.2838 13.8456 34.3127C14.2351 34.3151 14.6216 34.2456 14.9859 34.1076C13.9928 33.9917 12.9162 33.1979 12.9162 33.1979C12.9162 33.1979 6.99695 29.0667 11.1722 25.4686C10.4332 24.9992 9.55058 24.8101 8.68419 24.9355C8.68419 24.9355 13.8375 21.8264 14.4586 33.1979H15.658C15.658 33.1979 17.0799 28.6669 18.3673 29.2C19.6548 29.7331 16.9014 33.1979 16.9014 33.1979C14.6776 35.9362 9.90559 33.5085 9.90559 33.5085C9.90559 33.5085 2.38252 30.2314 2.70931 22.8473C2.97004 19.0696 4.83922 9.73179 16.7311 6.56473C14.1156 6.76173 11.7968 6.52185 15.4042 4.2946C21.6688 0.427606 25.3863 0 25.3863 0C25.3863 0 10.8361 0.198159 3.90753 9.38994C-3.02107 18.5817 -0.0904074 28.711 7.64473 33.5085C15.0473 37.8726 18.0162 33.1979 18.0162 33.1979C18.0162 33.1979 19.6965 31.2546 20.4532 28.8721C21.2099 26.4895 18.0985 23.8694 15.6557 29.244Z" fill="url(#paint5_linear_2602_8898)"/>
</g>
</g>
</g>
<g id="Group 156">
<path id="Vector_7" d="M120.628 4.52344L130.533 35.3635H119.661L116.023 23.3311L112.384 35.3635H101.516L111.246 4.52344H120.628Z" fill="#FF5757"/>
<path id="Vector_8" d="M187.137 4.52344L197.045 35.3635H186.169L182.535 23.3311L178.89 35.3635H168.025L177.755 4.52344H187.137Z" fill="#FF5757"/>
<path id="Vector_9" d="M148.863 19.9434L163.667 4.52344H149.708L146.049 8.51685V4.52344H134.891V35.3635H145.761V31.3728L149.708 35.3635H163.667L148.863 19.9434Z" fill="#FF5757"/>
<path id="Vector_10" d="M67.4717 14.0041C65.8854 10.2984 62.933 7.34595 59.2273 5.75965C57.3468 4.93743 55.3155 4.51642 53.2632 4.52353H43.4263V11.1262C43.96 10.2822 44.5901 9.50318 45.3038 8.80473C45.427 8.69457 45.5749 8.61559 45.735 8.57443C45.8951 8.53327 46.0628 8.53113 46.2239 8.56818C46.385 8.60524 46.5349 8.68041 46.6609 8.78739C46.787 8.89436 46.8855 9.03002 46.9483 9.18297C47.2826 9.98603 47.6115 11.4634 47.7705 13.2696C49.4698 12.6063 50.9444 12.239 51.8105 12.1732C51.9752 12.1624 52.14 12.1912 52.2913 12.2571C52.4425 12.3231 52.5758 12.4243 52.6799 12.5523C52.784 12.6803 52.856 12.8313 52.8897 12.9929C52.9235 13.1544 52.9181 13.3216 52.874 13.4806C52.6383 14.3412 51.9585 15.7637 50.9362 17.3397C52.7452 17.9153 54.1841 18.5923 54.9104 19.1131C55.0446 19.2098 55.1538 19.3371 55.2291 19.4843C55.3045 19.6315 55.3438 19.7946 55.3438 19.96C55.3438 20.1254 55.3045 20.2884 55.2291 20.4357C55.1538 20.5829 55.0446 20.7101 54.9104 20.8069C54.1841 21.3249 52.7452 22.0019 50.9362 22.5775C51.9585 24.1562 52.6383 25.576 52.874 26.4366C52.9181 26.5956 52.9235 26.7628 52.8897 26.9244C52.856 27.0859 52.784 27.2369 52.6799 27.3649C52.5758 27.4929 52.4425 27.5941 52.2913 27.6601C52.14 27.726 51.9752 27.7548 51.8105 27.744C50.9444 27.6864 49.4698 27.3192 47.7705 26.6476C47.6006 28.4539 47.2717 29.9367 46.9483 30.7342C46.8857 30.8874 46.7872 31.0233 46.6611 31.1303C46.5349 31.2374 46.3849 31.3125 46.2236 31.3494C46.0623 31.3862 45.8945 31.3836 45.7344 31.3419C45.5743 31.3002 45.4266 31.2206 45.3038 31.1097C44.5888 30.4124 43.9586 29.6332 43.4263 28.7882V35.391H53.2632C55.3237 35.4034 57.364 34.9832 59.2519 34.1576C61.0805 33.3605 62.7408 32.2229 64.1443 30.8055C65.5464 29.3851 66.6744 27.7181 67.4717 25.8884C68.2932 24.0222 68.7143 22.0045 68.7078 19.9655C68.7146 17.914 68.2936 15.8837 67.4717 14.0041Z" fill="#FF5757"/>
<path id="Vector_11" d="M86.2873 4.52344V24.2904H83.9329V4.52344H73.0654V35.3635H83.9329V29.4295H84.3906L84.81 29.424H85.9556V29.4295H86.2873V35.3635H97.1575V4.52344H86.2873Z" fill="#FF5757"/>
</g>
</g>
</g>
<defs>
<linearGradient id="paint0_linear_2602_8898" x1="25.3871" y1="33.935" x2="15.726" y2="33.1354" gradientUnits="userSpaceOnUse">
<stop stop-color="#DA4453"/>
<stop offset="1" stop-color="#89216B"/>
</linearGradient>
<linearGradient id="paint1_linear_2602_8898" x1="20.4287" y1="28.2703" x2="26.0698" y2="33.5557" gradientUnits="userSpaceOnUse">
<stop stop-color="#DA4453"/>
<stop offset="1" stop-color="#89216B"/>
</linearGradient>
<linearGradient id="paint2_linear_2602_8898" x1="25.7118" y1="32.0148" x2="31.2637" y2="34.0126" gradientUnits="userSpaceOnUse">
<stop stop-color="#F14382"/>
<stop offset="1" stop-color="#89216B"/>
</linearGradient>
<linearGradient id="paint3_linear_2602_8898" x1="31.3043" y1="29.557" x2="37.4333" y2="33.1551" gradientUnits="userSpaceOnUse">
<stop stop-color="#DA4453"/>
<stop offset="1" stop-color="#89216B"/>
</linearGradient>
<linearGradient id="paint4_linear_2602_8898" x1="19.3941" y1="13.9027" x2="26.9624" y2="27.7877" gradientUnits="userSpaceOnUse">
<stop stop-color="#F14382"/>
<stop offset="1" stop-color="#89216B"/>
</linearGradient>
<linearGradient id="paint5_linear_2602_8898" x1="12.6937" y1="20.627" x2="12.6937" y2="38.1658" gradientUnits="userSpaceOnUse">
<stop stop-color="#F14382"/>
<stop offset="1" stop-color="#89216B"/>
</linearGradient>
</defs>
</svg>
